<svg xmlns="http://www.w3.org/2000/svg" width="24" height="24" fill="none" viewBox="0 0 24 24">
  <path fill="#000" d="M18 11.249c0-2.819-2.601-5.25-6-5.25a6 6 0 0 0 0 12c.023 0 .046 0 .068.003a.226.226 0 0 0 .242-.27.223.223 0 0 0-.044-.089 2.25 2.25 0 0 1-.964-2.474 2.25 2.25 0 0 1 2.198-1.67h1.875c.722 0 1.401-.256 1.889-.69.484-.43.736-.994.736-1.56Zm-10.125-.375a1.5 1.5 0 1 1 3 0 1.5 1.5 0 0 1-3 0Zm6 0a1.5 1.5 0 1 1 3 0 1.5 1.5 0 0 1-3 0Zm-3-2.25a1.5 1.5 0 1 1 2.999 0 1.5 1.5 0 0 1-2.999 0Zm8.625 2.625c0 1.024-.459 1.987-1.24 2.681-.779.692-1.818 1.069-2.885 1.069h-1.887a.752.752 0 0 0-.737.556.751.751 0 0 0 .258.78l.104.07.075.048a.745.745 0 0 1 .07.058 1.724 1.724 0 0 1-1.278 2.987 7.5 7.5 0 0 1 .02-15c4.056 0 7.5 2.942 7.5 6.75Z"/>
</svg>
