<svg xmlns="http://www.w3.org/2000/svg" width="24" height="24" fill="none" viewBox="0 0 24 24">
  <path fill="#000" d="M16.19 14.742c.081-.323.54-.323.621 0l.29 1.158 1.158.29c.323.081.323.54 0 .62l-1.158.29-.29 1.159c-.08.323-.54.322-.62 0L15.9 17.1l-1.159-.29c-.323-.08-.323-.539 0-.62l1.158-.29.29-1.158Zm-5.78-7.68c.553-1.517 2.79-1.467 3.23.15l.675 2.473 2.473.675c1.67.456 1.67 2.824 0 3.28l-2.473.673-.674 2.474c-.456 1.67-2.824 1.67-3.28 0l-.674-2.474-2.473-.674c-1.67-.455-1.67-2.823 0-3.279l2.473-.675.674-2.472.048-.152Zm2.267.414c-.188-.687-1.164-.687-1.352 0l-.824 3.024-3.023.824c-.688.188-.688 1.164 0 1.351l3.023.825.824 3.023c.176.645 1.044.685 1.307.121l.045-.12.824-3.024 3.023-.825c.688-.187.688-1.163 0-1.351l-3.023-.824-.824-3.024ZM7.19 5.741c.081-.323.54-.323.622 0L8.1 6.899l1.158.29c.323.081.323.54 0 .621L8.1 8.1l-.29 1.158c-.08.323-.54.323-.62 0L6.9 8.099 5.741 7.81c-.323-.08-.323-.54 0-.62L6.9 6.9l.29-1.159Z"/>
</svg>
