<svg xmlns="http://www.w3.org/2000/svg" width="24" height="24" fill="none" viewBox="0 0 24 24">
  <path fill="#000" fill-rule="evenodd" d="M13.5 6A1.5 1.5 0 0 1 15 7.5V9h1.5a1.5 1.5 0 0 1 1.5 1.5v6a1.5 1.5 0 0 1-1.5 1.5h-6A1.5 1.5 0 0 1 9 16.5V15H7.5A1.5 1.5 0 0 1 6 13.5v-6A1.5 1.5 0 0 1 7.5 6h6Zm1.5 7.5a1.5 1.5 0 0 1-1.5 1.5H10v1.5a.5.5 0 0 0 .5.5h6a.5.5 0 0 0 .5-.5v-6a.5.5 0 0 0-.5-.5H15v3.5ZM7.5 7a.5.5 0 0 0-.5.5v6a.5.5 0 0 0 .5.5h6a.5.5 0 0 0 .5-.5v-6a.5.5 0 0 0-.5-.5h-6Z" clip-rule="evenodd"/>
</svg>
