<svg xmlns="http://www.w3.org/2000/svg" width="24" height="24" fill="none" viewBox="0 0 24 24">
  <path fill="#000" fill-rule="evenodd" d="M13.436 5.5c.75 0 1.029.06 1.305.208.238.127.424.313.551.551.148.276.208.555.208 1.305v5.872c0 .75-.06 1.029-.208 1.305a1.323 1.323 0 0 1-.551.551c-.276.148-.555.208-1.305.208H7.564c-.75 0-1.029-.06-1.305-.208a1.324 1.324 0 0 1-.551-.551c-.148-.276-.208-.555-.208-1.305V7.564c0-.75.06-1.029.208-1.305.127-.238.313-.424.551-.551.276-.148.555-.208 1.305-.208h5.872Z" clip-rule="evenodd" opacity=".2"/>
  <path fill="#000" d="M13.435 5c.77 0 1.152.06 1.54.268.326.173.585.43.758.755.152.284.222.564.25.993.43.028.71.1.993.252.325.173.584.43.757.755.209.389.267.772.267 1.541v5.871c0 .769-.06 1.151-.267 1.539h.001a1.827 1.827 0 0 1-.76.76c-.388.206-.77.266-1.539.266h-5.87c-.77 0-1.152-.06-1.54-.267a1.825 1.825 0 0 1-.76-.758l.002-.001c-.151-.283-.223-.563-.251-.99-.428-.029-.708-.1-.99-.25a1.825 1.825 0 0 1-.76-.76C5.06 14.586 5 14.204 5 13.435v-5.87c0-.77.06-1.153.268-1.542a1.81 1.81 0 0 1 .755-.756C6.412 5.058 6.795 5 7.564 5h5.871ZM16 13.435c0 .769-.06 1.151-.267 1.539h.001a1.827 1.827 0 0 1-.76.76c-.388.207-.77.266-1.539.266H8.021c.015.176.038.286.068.371l.06.134.001.002c.058.11.14.204.239.277l.104.066.002.002c.163.087.34.148 1.07.148h5.87c.73 0 .907-.06 1.07-.148l.002-.002a.822.822 0 0 0 .343-.343l.002-.002c.087-.163.148-.34.148-1.07v-5.87c0-.73-.06-.907-.148-1.07h-.001a.82.82 0 0 0-.345-.346h-.001c-.11-.059-.224-.106-.505-.13v5.416ZM7.564 6c-.73 0-.906.06-1.069.148v.001a.819.819 0 0 0-.346.345v.001C6.06 6.658 6 6.835 6 7.565v5.87c0 .548.035.784.089.936l.06.134.001.002c.058.11.14.204.239.277l.104.066.002.002c.163.087.34.148 1.07.148h5.87c.73 0 .907-.06 1.07-.148l.002-.002a.822.822 0 0 0 .343-.343l.002-.002c.087-.163.148-.34.148-1.07v-5.87c0-.73-.06-.907-.148-1.07h-.001a.82.82 0 0 0-.345-.346h-.001c-.163-.088-.34-.149-1.07-.149h-5.87Z"/>
</svg>
